{"title":"Knight.and.Day.2010.720p.BRRip.H264.Feel-Free","uid":5920624,"size":1482778765,"categoryP":"video","categoryS":"hd___movies","magnet":"?xt=urn:btih:51759057e9b522b9f1ab7a522aeace649de97f52&amp;dn=Knight.and.Day.2010.720p.BRRip.H264.Feel-Free&amp;tr=udp%3A%2F%2Ftracker.openbittorrent.com%3A80&amp;tr=udp%3A%2F%2Fopen.demonii.com%3A1337&amp;tr=udp%3A%2F%2Ftracker.coppersurfer.tk%3A6969&amp;tr=udp%3A%2F%2Fexodus.desync.com%3A6969","seeders":0,"leechers":1,"uploader":"deffjam555","files":9,"time":1288412140,"description":"cover\n\n &lt;a href=&quot;\nhttp://www.imdb.com/title/tt1013743/&quot; rel=&quot;nofollow&quot; target=&quot;_NEW&quot;&gt;\nhttp://www.imdb.com/title/tt1013743/&lt;/a&gt;\n\nGenre:Thriller / Comedie / Actiune\nLanguage:English\nIMDb:http://www.imdb.com/title/tt1013743/\nSource:720p BluRay x264-ZMG\nSubtitles:Romana\n\nGeneral\nComplete name :Knight.and.Day.2010.720p.H264.Feel-Free\nFormat : MPEG-4\nFormat profile : Base Media\nCodec ID : isom\nFile size : 1.38 GiB\nDuration : 1h 49mn\nOverall bit rate : 1 804 Kbps\nVideo #1\nID : 1\nFormat : AVC\nFormat/Info : Advanced Video Codec\nFormat profile : &lt;a class=&quot;__cf_email__&quot; href=&quot;/cdn-cgi/l/email-protection&quot; data-cfemail=&quot;4409252d2a0408706a74&quot;&gt;[email&amp;#160;protected]&lt;/a&gt;&lt;script cf-hash='f9e31' type=&quot;text/javascript&quot;&gt;\n/* &lt;![CDATA[ */!function(){try{var t=&quot;currentScript&quot;in document?document.currentScript:function(){for(var t=document.getElementsByTagName(&quot;script&quot;),e=t.length;e--;)if(t[e].getAttribute(&quot;cf-hash&quot;))return t[e]}();if(t&amp;&amp;t.previousSibling){var e,r,n,i,c=t.previousSibling,a=c.getAttribute(&quot;data-cfemail&quot;);if(a){for(e=&quot;&quot;,r=parseInt(a.substr(0,2),16),n=2;a.length-n;n+=2)i=parseInt(a.substr(n,2),16)^r,e+=String.fromCharCode(i);e=document.createTextNode(e),c.parentNode.replaceChild(e,c)}}}catch(u){}}();/* ]]&gt; */&lt;/script&gt;\nFormat settings, CABAC : No\nFormat settings, ReFrames : 2 frames\nCodec ID : avc1\nCodec ID/Info : Advanced Video Coding\nDuration : 1h 49mn\nBit rate mode : Variable\nBit rate : 1 480 Kbps\nWidth : 1 280 pixels\nHeight : 528 pixels\nDisplay aspect ratio : 2.40:1\nFrame rate mode : Constant\nFrame rate : 23.976 fps\nResolution : 24 bits\nColorimetry : 4:2:0\nScan type : Progressive\nBits/(Pixel*Frame) : 0.091\nStream size : 1.13 GiB (82%)\nAudio #2\nID : 2\nFormat : AAC\nFormat/Info : Advanced Audio Codec\nFormat version : Version 4\nFormat profile : LC\nFormat settings, SBR : No\nCodec ID : 40\nDuration : 1h 49mn\nBit rate mode : Variable\nBit rate : 320 Kbps\nChannel(s) : 6 channels\nChannel positions : Front: L C R, Rear: L R, LFE\nSampling rate : 48.0 KHz\nResolution : 16 bits\nStream size : 250 MiB (18%)\n\nPlot:\nJune Havens (Diaz) finds her everyday life tangled with that of a secret agent (Cruise) who has realized\n\nscreens\n &lt;a href=&quot;\nhttp://img534.imageshack.us/img534/1466/20423251.jpg&quot; rel=&quot;nofollow&quot; target=&quot;_NEW&quot;&gt;\nhttp://img534.imageshack.us/img534/1466/20423251.jpg&lt;/a&gt; &lt;a href=&quot;\nhttp://img225.imageshack.us/img225/2081/37874137.jpg&quot; rel=&quot;nofollow&quot; target=&quot;_NEW&quot;&gt;\nhttp://img225.imageshack.us/img225/2081/37874137.jpg&lt;/a&gt; &lt;a href=&quot;\nhttp://img826.imageshack.us/img826/9338/49631229.jpg&quot; rel=&quot;nofollow&quot; target=&quot;_NEW&quot;&gt;\nhttp://img826.imageshack.us/img826/9338/49631229.jpg&lt;/a&gt; &lt;a href=&quot;\nhttp://img193.imageshack.us/img193/2154/52608432.jpg&quot; rel=&quot;nofollow&quot; target=&quot;_NEW&quot;&gt;\nhttp://img193.imageshack.us/img193/2154/52608432.jpg&lt;/a&gt; &lt;a href=&quot;\nhttp://img840.imageshack.us/img840/102/26757302.jpg&quot; rel=&quot;nofollow&quot; target=&quot;_NEW&quot;&gt;\nhttp://img840.imageshack.us/img840/102/26757302.jpg&lt;/a&gt;\n\n","torrent":{"xt":"urn:btih:51759057e9b522b9f1ab7a522aeace649de97f52","amp;dn":"Knight.and.Day.2010.720p.BRRip.H264.Feel-Free","amp;tr":["udp%3A%2F%2Ftracker.openbittorrent.com%3A80","udp%3A%2F%2Fopen.demonii.com%3A1337","udp%3A%2F%2Ftracker.coppersurfer.tk%3A6969","udp%3A%2F%2Fexodus.desync.com%3A6969"],"infoHash":"51759057e9b522b9f1ab7a522aeace649de97f52","infoHashBuffer":{"type":"Buffer","data":[81,117,144,87,233,181,34,185,241,171,122,82,42,234,206,100,157,233,127,82]},"announce":[],"urlList":[]}}